# xmcd
#
# Track frame offsets:
#	150
#	12762
#	27135
#	39325
#	51065
#	61120
#	72562
#	84360
#	98060
#	112335
#	123875
#	137350
#	148945
#	158975
#	170822
#	184057
#	196675
#	207962
#
# Disc length: 2931 seconds
#
# Revision: 2
# Processed by: cddbd v1.4PL0 Copyright (c) Steve Scherf et al.
# Submitted via: audiograbber 1.81.03
#
DISCID=f50b7112
DTITLE=Various Artist - Let Your Love Flow
DYEAR=1900
DGENRE=
TTITLE0=Don Williams - Some broken heart never mend
TTITLE1=Bellamy Brothers - Let your love flow
TTITLE2=Dean Martin - My pony, my rifle and me
TTITLE3=Lynn Anderson - You don't have to say you love me
TTITLE4=Bob Luman - When you say love
TTITLE5=Kenny Rogers - Poem for my little lady
TTITLE6=Skeeter Davis - End of the world
TTITLE7=Nat Stuckey - Take time to love her
TTITLE8=Bellamy Brothers - If I said you nave a beautiful body
TTITLE9=Sammi Smith - Help me make it through the night
TTITLE10=Dean Martin - Rio Bravo
TTITLE11=Don Gibson - I can't stop loving you
TTITLE12=Porter Wagoner - Green, green grass of home
TTITLE13=Jack Green - There goes my everything
TTITLE14=David Houston - Almost persuaded
TTITLE15=Billie Jo Spears - Vou've got the power
TTITLE16=Hank Locklin - Send me the pillow you dream on
TTITLE17=Judy Miller - Queen of the house
EXTD=
EXTT0=
EXTT1=
EXTT2=
EXTT3=
EXTT4=
EXTT5=
EXTT6=
EXTT7=
EXTT8=
EXTT9=
EXTT10=
EXTT11=
EXTT12=
EXTT13=
EXTT14=
EXTT15=
EXTT16=
EXTT17=
PLAYORDER=
